mtllib trianguler_prism.obj.mtl
g Part 1
usemtl 0.615686_0.811765_0.929412_0.000000_0.000000
o mesh0
v -0.15 -8.32667e-17 0.3 
v 0.15 1.38778e-17 0.3 
v 4.16334e-17 0.15 0.3 
vn 0 0 1 
vn 0 0 1 
vn 0 0 1 
f 1//1 2//2 3//3 
o mesh1
v 4.16334e-17 0.15 0.3 
v 4.16334e-17 0.15 0 
v -0.15 -8.32667e-17 0 
v -0.15 -8.32667e-17 0.3 
vn -0.707107 0.707107 0 
vn -0.707107 0.707107 0 
vn -0.707107 0.707107 0 
vn -0.707107 0.707107 0 
f 4//4 5//5 6//6 
f 6//6 7//7 4//4 
o mesh2
v -0.15 -8.32667e-17 0.3 
v -0.15 -8.32667e-17 0 
v 0.15 1.38778e-17 0 
v 0.15 1.38778e-17 0.3 
vn 0 -1 0 
vn 0 -1 0 
vn 0 -1 0 
vn 0 -1 0 
f 8//8 9//9 10//10 
f 10//10 11//11 8//8 
o mesh3
v 0.15 1.38778e-17 0.3 
v 0.15 1.38778e-17 0 
v 4.16334e-17 0.15 0 
v 4.16334e-17 0.15 0.3 
vn 0.707107 0.707107 0 
vn 0.707107 0.707107 0 
vn 0.707107 0.707107 0 
vn 0.707107 0.707107 0 
f 12//12 13//13 14//14 
f 14//14 15//15 12//12 
o mesh4
v 4.16334e-17 0.15 0 
v 0.15 1.38778e-17 0 
v -0.15 -8.32667e-17 0 
vn 0 0 -1 
vn 0 0 -1 
vn 0 0 -1 
f 16//16 17//17 18//18 
